<svg width="100%" viewBox="0 0 680 720" xmlns="http://www.w3.org/2000/svg">
<style>
text{font-family:-apple-system,BlinkMacSystemFont,sans-serif}
.th{font-size:14px;font-weight:500;fill:#1a1a1a}
.ts{font-size:12px;fill:#666}
.ll{font-size:12px;fill:#888}
.arr{stroke:#888;stroke-width:1.5}
.bnd{fill:none;stroke:#888780;stroke-width:0.5;stroke-dasharray:4 3}
.leader{stroke:#999;stroke-width:0.5;stroke-dasharray:4 3}
.ft{font-size:11px;fill:#999}
</style>
<defs><marker id="arrow" viewBox="0 0 10 10" refX="8" refY="5" markerWidth="6" markerHeight="6" orient="auto-start-reverse"><path d="M2 1L8 5L2 9" fill="none" stroke="context-stroke" stroke-width="1.5" stroke-linecap="round" stroke-linejoin="round"/></marker></defs>
<text class="ll" x="40" y="28">External sources</text>
<rect x="40" y="40" width="130" height="44" rx="8" fill="#F1EFE8" stroke="#5F5E5A" stroke-width="0.5"/>
<text class="th" x="105" y="66" text-anchor="middle">Socrata API</text>
<rect x="200" y="40" width="130" height="44" rx="8" fill="#F1EFE8" stroke="#5F5E5A" stroke-width="0.5"/>
<text class="th" x="265" y="66" text-anchor="middle">FRED API</text>
<line x1="105" y1="84" x2="105" y2="120" class="arr" marker-end="url(#arrow)"/>
<line x1="265" y1="84" x2="265" y2="120" class="arr" marker-end="url(#arrow)"/>
<rect class="bnd" x="30" y="120" width="620" height="80" rx="12"/>
<text class="ll" x="46" y="138">Bronze (immutable, never exposed)</text>
<rect x="50" y="148" width="130" height="40" rx="6" fill="#FAECE7" stroke="#993C1D" stroke-width="0.5"/>
<text x="115" y="172" text-anchor="middle" fill="#712B13" font-size="12">nyc311_*.json</text>
<rect x="210" y="148" width="130" height="40" rx="6" fill="#FAECE7" stroke="#993C1D" stroke-width="0.5"/>
<text x="275" y="172" text-anchor="middle" fill="#712B13" font-size="12">FRED_*.json</text>
<rect x="380" y="148" width="130" height="40" rx="6" fill="#FAECE7" stroke="#993C1D" stroke-width="0.5"/>
<text x="445" y="172" text-anchor="middle" fill="#712B13" font-size="12">_watermark.json</text>
<line x1="115" y1="200" x2="115" y2="250" class="arr" marker-end="url(#arrow)"/>
<line x1="275" y1="200" x2="405" y2="250" class="arr" marker-end="url(#arrow)"/>
<rect class="bnd" x="30" y="240" width="620" height="90" rx="12"/>
<text class="ll" x="46" y="258">Silver (static rebuild from bronze, internal only)</text>
<rect x="50" y="268" width="200" height="50" rx="8" fill="#E1F5EE" stroke="#0F6E56" stroke-width="0.5"/>
<text x="150" y="285" text-anchor="middle" fill="#085041" font-size="14" font-weight="500">stg_complaints</text>
<text x="150" y="303" text-anchor="middle" fill="#0F6E56" font-size="12">19.3M rows, 23 cols</text>
<rect x="300" y="268" width="200" height="50" rx="8" fill="#E1F5EE" stroke="#0F6E56" stroke-width="0.5"/>
<text x="400" y="285" text-anchor="middle" fill="#085041" font-size="14" font-weight="500">stg_fred_observations</text>
<text x="400" y="303" text-anchor="middle" fill="#0F6E56" font-size="12">3,065 rows, 4 cols</text>
<text class="ts" x="540" y="295">57 dbt tests</text>
<line x1="100" y1="330" x2="100" y2="380" class="arr" marker-end="url(#arrow)"/>
<line x1="170" y1="330" x2="230" y2="380" class="arr" marker-end="url(#arrow)"/>
<line x1="150" y1="330" x2="360" y2="380" class="arr" marker-end="url(#arrow)"/>
<line x1="150" y1="330" x2="490" y2="380" class="arr" marker-end="url(#arrow)"/>
<line x1="400" y1="318" x2="400" y2="380" class="arr" marker-end="url(#arrow)"/>
<path d="M200 330 L200 360 L555 360 L555 380" fill="none" class="arr" marker-end="url(#arrow)"/>
<rect class="bnd" x="30" y="370" width="620" height="220" rx="12"/>
<text class="ll" x="46" y="388">Gold (exposed to consumers, rebuildable in 55 seconds)</text>
<rect x="50" y="398" width="140" height="40" rx="6" fill="#EEEDFE" stroke="#534AB7" stroke-width="0.5"/>
<text x="120" y="422" text-anchor="middle" fill="#3C3489" font-size="12">fct_daily_complaints</text>
<rect x="200" y="398" width="140" height="40" rx="6" fill="#EEEDFE" stroke="#534AB7" stroke-width="0.5"/>
<text x="270" y="422" text-anchor="middle" fill="#3C3489" font-size="12">fct_borough_summary</text>
<rect x="350" y="398" width="140" height="40" rx="6" fill="#EEEDFE" stroke="#534AB7" stroke-width="0.5"/>
<text x="420" y="422" text-anchor="middle" fill="#3C3489" font-size="12">fct_macro_daily</text>
<rect x="500" y="398" width="140" height="40" rx="6" fill="#EEEDFE" stroke="#534AB7" stroke-width="0.5"/>
<text x="570" y="422" text-anchor="middle" fill="#3C3489" font-size="12">fct_economic_corr</text>
<rect x="130" y="460" width="170" height="40" rx="6" fill="#EEEDFE" stroke="#534AB7" stroke-width="0.5"/>
<text x="215" y="484" text-anchor="middle" fill="#3C3489" font-size="12">fct_resolution_anomalies</text>
<rect x="380" y="460" width="160" height="40" rx="6" fill="#EEEDFE" stroke="#534AB7" stroke-width="0.5"/>
<text x="460" y="484" text-anchor="middle" fill="#3C3489" font-size="12">fct_anomaly_summary</text>
<text class="ll" x="50" y="530">Investigation tables</text>
<line class="leader" x1="155" y1="527" x2="215" y2="502"/>
<line x1="300" y1="550" x2="200" y2="610" class="arr" marker-end="url(#arrow)"/>
<line x1="380" y1="550" x2="480" y2="610" class="arr" marker-end="url(#arrow)"/>
<rect class="bnd" x="30" y="600" width="620" height="90" rx="12"/>
<text class="ll" x="46" y="618">Consumer layer (only layer with external access)</text>
<rect x="80" y="630" width="180" height="44" rx="8" fill="#E6F1FB" stroke="#185FA5" stroke-width="0.5"/>
<text x="170" y="656" text-anchor="middle" fill="#0C447C" font-size="14" font-weight="500">Streamlit dashboard</text>
<rect x="380" y="630" width="180" height="44" rx="8" fill="#E6F1FB" stroke="#185FA5" stroke-width="0.5"/>
<text x="470" y="656" text-anchor="middle" fill="#0C447C" font-size="14" font-weight="500">FastAPI (REST)</text>
<text class="ft" x="340" y="710" text-anchor="middle">If gold is compromised, rebuild from silver in 55s. Silver rebuilds from bronze. Bronze is immutable.</text>
</svg>
